<svg width="2221" height="2854" xmlns="http://www.w3.org/2000/svg"><defs><linearGradient x1="50%" y1="0%" x2="50%" y2="100%" id="a"><stop stop-color="#6100DE" offset="0%"/><stop stop-color="#9C53F8" offset="100%"/></linearGradient></defs><path d="M1677.357 2853.128c-18.534 0-37.055-.935-55.495-2.8a544.137 544.137 0 01-53.892-8.225 541.132 541.132 0 01-52.016-13.375 541.037 541.037 0 01-49.867-18.251 542.707 542.707 0 01-47.445-22.856 546.325 546.325 0 01-44.752-27.187 547.976 547.976 0 01-41.784-31.245 549.202 549.202 0 01-38.544-35.031 547.26 547.26 0 01-35.031-38.544 546.92 546.92 0 01-31.245-41.784 545.044 545.044 0 01-27.187-44.752 542.577 542.577 0 01-22.856-47.446 538.712 538.712 0 01-31.626-101.883 544.137 544.137 0 01-8.225-53.892 551.523 551.523 0 01-2.8-55.495v-.253h.466c20.56.005 41.07-2.062 61.216-6.17a302.221 302.221 0 00108.628-45.7 304.631 304.631 0 00110.085-133.623 302.055 302.055 0 0017.707-57.011 305.79 305.79 0 006.174-61.211v-183.735c-186.288 90.933-304.401 280.149-304.276 487.446a306.031 306.031 0 01-61.137-6.248 302.211 302.211 0 01-108.47-45.769 304.626 304.626 0 01-109.9-133.572 302.074 302.074 0 01-17.675-56.966 306.202 306.202 0 01-6.162-61.157v-911.346c0-20.561 2.064-41.07 6.174-61.216a302.14 302.14 0 0145.72-108.631 304.8 304.8 0 01133.674-110.082 302.27 302.27 0 0157.023-17.706 306.583 306.583 0 01122.434 0 302.142 302.142 0 01108.627 45.726 304.8 304.8 0 01110.085 133.672 302.226 302.226 0 0117.707 57.022 305.866 305.866 0 016.174 61.216v727.612a539.171 539.171 0 01175.25-51.423 550.723 550.723 0 01118.736-.842 544.112 544.112 0 0153.892 8.225 540.62 540.62 0 0152.016 13.375 541.009 541.009 0 0149.867 18.251c16.1 6.81 32.063 14.5 47.446 22.856a545.97 545.97 0 0144.751 27.187 548.174 548.174 0 0141.784 31.245 549 549 0 0138.544 35.031 547.15 547.15 0 0135.031 38.544 547.05 547.05 0 0131.245 41.784 544.858 544.858 0 0127.187 44.751 542.441 542.441 0 0122.856 47.445 538.712 538.712 0 0131.626 101.883 544.124 544.124 0 018.225 53.892 550.9 550.9 0 010 110.99 544.137 544.137 0 01-8.225 53.892 540.838 540.838 0 01-13.375 52.016 541.009 541.009 0 01-18.251 49.867 542.736 542.736 0 01-22.856 47.446 546.325 546.325 0 01-27.187 44.752 547.976 547.976 0 01-31.245 41.784 549.404 549.404 0 01-35.031 38.544 546.66 546.66 0 01-38.544 35.031 546.853 546.853 0 01-41.784 31.245 545.027 545.027 0 01-44.751 27.187 542.874 542.874 0 01-47.446 22.856 540.824 540.824 0 01-49.867 18.251 538.862 538.862 0 01-52.016 13.375 544.076 544.076 0 01-53.892 8.225 551.142 551.142 0 01-55.495 2.803zM303.711 2430.105c-20.56 0-41.068-2.062-61.213-6.17a302.043 302.043 0 01-108.6-45.7 304.56 304.56 0 01-110.033-133.616 302.229 302.229 0 01-17.7-57.011A306.015 306.015 0 010 2126.4V303.711A306.35 306.35 0 016.17 242.5a302.049 302.049 0 0145.7-108.6A304.57 304.57 0 01185.487 23.866 302.2 302.2 0 01242.5 6.17a306.891 306.891 0 01122.458 0A302.171 302.171 0 01473.6 51.868a304.54 304.54 0 01110.053 133.624 302.16 302.16 0 0117.7 57.01 306.337 306.337 0 016.17 61.21V2126.4a306.36 306.36 0 01-6.17 61.212 302 302 0 01-45.7 108.6 304.588 304.588 0 01-133.662 110.028 302.45 302.45 0 01-57.035 17.7 306.802 306.802 0 01-61.245 6.165z" fill="url(#a)" fill-rule="nonzero"/></svg>